<svg xmlns="http://www.w3.org/2000/svg" viewBox="0 0 128 128" role="img" aria-label="Anything Analyzer Browser icon">
  <defs>
    <linearGradient id="bg" x1="8" y1="8" x2="120" y2="120" gradientUnits="userSpaceOnUse">
      <stop offset="0" stop-color="#fff7d6"/>
      <stop offset=".52" stop-color="#e5f7ff"/>
      <stop offset="1" stop-color="#d9fbe8"/>
    </linearGradient>
    <filter id="shadow" x="-20%" y="-20%" width="140%" height="140%">
      <feDropShadow dx="0" dy="5" stdDeviation="4" flood-color="#36515a" flood-opacity=".14"/>
    </filter>
  </defs>
  <rect x="8" y="8" width="112" height="112" rx="26" fill="url(#bg)" stroke="#5eead4" stroke-width="3"/>
  <rect x="23" y="24" width="82" height="84" rx="14" fill="#ffffff" stroke="#34d399" stroke-width="4" filter="url(#shadow)"/>
  <path d="M37 24h54a14 14 0 0 1 14 14v12H23V38a14 14 0 0 1 14-14Z" fill="#ccfbf1"/>
  <circle cx="39" cy="37" r="5" fill="#fb7185"/>
  <path d="M50 37h32" stroke="#14b8a6" stroke-width="5" stroke-linecap="round"/>
  <rect x="34" y="58" width="61" height="11" rx="5.5" fill="#fee2e2"/>
  <circle cx="43" cy="63.5" r="7" fill="#fb7185" stroke="#ffffff" stroke-width="3"/>
  <path d="M55 63.5h31" stroke="#fca5a5" stroke-width="5" stroke-linecap="round"/>
  <circle cx="43" cy="79" r="4" fill="#38bdf8"/>
  <path d="M55 79h36" stroke="#93c5fd" stroke-width="5" stroke-linecap="round"/>
  <circle cx="43" cy="93" r="4" fill="#34d399"/>
  <path d="M55 93h26" stroke="#86efac" stroke-width="5" stroke-linecap="round"/>
  <path d="M69 99c7-5 16-5 23-1" fill="none" stroke="#14b8a6" stroke-width="4" stroke-linecap="round"/>
  <g transform="rotate(-42 90 90)">
    <rect x="84" y="64" width="14" height="38" rx="7" fill="#67e8f9" stroke="#0f766e" stroke-width="4"/>
    <path d="M84 72h14" stroke="#0f766e" stroke-width="4" stroke-linecap="round"/>
    <path d="M87 64v-8h8v8Z" fill="#fbbf24" stroke="#0f766e" stroke-width="4" stroke-linejoin="round"/>
    <path d="M87 102h8l-4 10Z" fill="#fff7d6" stroke="#0f766e" stroke-width="4" stroke-linejoin="round"/>
    <path d="M91 112v4" stroke="#0f766e" stroke-width="3" stroke-linecap="round"/>
    <path d="M88 86h6" stroke="#e0f7ff" stroke-width="3" stroke-linecap="round"/>
  </g>
</svg>
